<?xml version="1.0" encoding="UTF-8"?>
<svg id="Layer_1" data-name="Layer 1" xmlns="http://www.w3.org/2000/svg" viewBox="0 0 914.55 221.45">
  <defs>
    <style>
      .cls-1 {
        fill: #faca06;
      }

      .cls-2 {
        fill: #4f4c4d;
      }
    </style>
  </defs>
  <path class="cls-2" d="M219.17,100.36c0,7.93-1.46,15.11-4.38,21.53-2.92,6.68-6.93,12.69-12.02,18.03-5.09,5.09-11.06,9.1-17.9,12.02-6.76,3-14.02,4.51-21.79,4.51h-37.31v-18.78h37.31c5.09,0,9.93-.92,14.52-2.75,4.84-2.17,8.85-4.88,12.02-8.14,3.51-3.76,6.13-7.76,7.89-12.02,2-4.67,3.01-9.47,3.01-14.4s-1-9.81-3.01-14.4c-1.84-4.42-4.55-8.43-8.14-12.02-3.42-3.42-7.39-6.13-11.89-8.14-4.76-1.83-9.56-2.75-14.4-2.75h-37.31v-18.78h37.31c7.68,0,14.94,1.5,21.79,4.51,6.59,2.84,12.52,6.85,17.78,12.02,5.17,5.26,9.22,11.27,12.14,18.03,2.92,6.43,4.38,13.61,4.38,21.54"/>
  <path class="cls-2" d="M257.23,156.45h-24.04l87.77-112.18h23.66l-87.39,112.18Zm16.78-59.72l-40.82-52.46h24.04l28.8,36.94-12.02,15.52Zm29.67,7.14l40.94,52.59-23.54,.25-29.17-37.44,11.77-15.4Z"/>
  <path class="cls-2" d="M452.05,81.71c0,10.44-3.63,19.28-10.89,26.54-7.35,7.26-16.15,10.89-26.42,10.89h-37.44v37.31h-18.65v-56.09h56.09c5.01,0,9.35-1.84,13.02-5.51,3.76-3.76,5.63-8.14,5.63-13.15s-1.88-9.56-5.63-13.15c-3.67-3.67-8.01-5.51-13.02-5.51h-56.09v-18.78h56.09c10.27,0,19.07,3.63,26.42,10.89,7.26,7.51,10.89,16.36,10.89,26.54"/>
  <polygon class="cls-2" points="540.82 137.67 540.82 156.45 466.07 156.45 466.07 44.27 484.73 44.27 484.73 137.67 540.82 137.67"/>
  <path class="cls-2" d="M732.91,101.17l16.65,.12c5.01,0,9.35-1.83,13.02-5.51,3.76-3.51,5.63-7.93,5.63-13.27s-1.88-9.51-5.63-13.02c-3.67-3.67-8.01-5.51-13.02-5.51h-50.58v-18.78h50.58c10.35,0,19.16,3.63,26.42,10.89,7.26,7.51,10.89,16.32,10.89,26.42,0,7.93-2.17,14.98-6.51,21.16-4.34,6.26-9.81,10.77-16.4,13.52l22.91,40.19h-21.41l-32.55-56.22Zm-33.93-21.66h18.65v77.88h-18.65V79.51Z"/>
  <path class="cls-1" d="M661.85,51.24c12.74,12.75,19.12,27.89,19.12,45.42s-6.37,32.97-19.12,45.42c-12.84,12.65-27.98,18.97-45.42,18.97s-32.58-6.32-45.42-18.97c-12.65-12.84-18.97-27.98-18.97-45.42s6.33-32.58,18.97-45.42c12.46-12.65,27.6-18.98,45.42-18.98s32.58,6.32,45.42,18.98m-75.9,15.09c-8.24,8.34-12.36,18.45-12.36,30.33s4.12,22.14,12.36,30.47c8.34,8.24,18.49,12.36,30.47,12.36s21.99-4.12,30.33-12.36c8.34-8.43,12.51-18.59,12.51-30.47s-4.17-21.9-12.51-30.33c-8.43-8.34-18.54-12.51-30.33-12.51s-22.04,4.17-30.47,12.51"/>
  <rect class="cls-1" x="649.51" y="137.37" width="21.83" height="50.39" transform="translate(32.02 422.76) rotate(-36.32)"/>
  <rect class="cls-2" x="36.38" y="44.27" width="16.87" height="112.49"/>
  <rect class="cls-2" x="58.88" y="45.21" width="53.43" height="16.87"/>
  <rect class="cls-2" x="58.88" y="92.08" width="53.43" height="16.87"/>
  <rect class="cls-2" x="58.88" y="139.89" width="53.43" height="16.87"/>
  <rect class="cls-2" x="800.39" y="44.27" width="16.87" height="112.49"/>
  <rect class="cls-2" x="822.88" y="45.21" width="53.43" height="16.87"/>
  <rect class="cls-2" x="822.88" y="92.08" width="53.43" height="16.87"/>
  <rect class="cls-2" x="822.88" y="139.89" width="53.43" height="16.87"/>
</svg>